<?xml version="1.0" encoding="UTF-8" standalone="no"?>
<!-- Created with Inkscape (http://www.inkscape.org/) -->

<svg
   width="32"
   height="32"
   viewBox="0 0 8.4666666 8.4666666"
   version="1.1"
   id="svg5"
   inkscape:version="1.4.2 (ebf0e940d0, 2025-05-08)"
   sodipodi:docname="nadi.svg"
   inkscape:export-filename="icon.png"
   inkscape:export-xdpi="200"
   inkscape:export-ydpi="200"
   xml:space="preserve"
   xmlns:inkscape="http://www.inkscape.org/namespaces/inkscape"
   xmlns:sodipodi="http://sodipodi.sourceforge.net/DTD/sodipodi-0.dtd"
   xmlns="http://www.w3.org/2000/svg"
   xmlns:svg="http://www.w3.org/2000/svg"><sodipodi:namedview
     id="namedview7"
     pagecolor="#505050"
     bordercolor="#eeeeee"
     borderopacity="1"
     inkscape:showpageshadow="0"
     inkscape:pageopacity="0"
     inkscape:pagecheckerboard="0"
     inkscape:deskcolor="#505050"
     inkscape:document-units="mm"
     showgrid="false"
     inkscape:zoom="16.343268"
     inkscape:cx="12.482204"
     inkscape:cy="21.293171"
     inkscape:window-width="1920"
     inkscape:window-height="1023"
     inkscape:window-x="0"
     inkscape:window-y="28"
     inkscape:window-maximized="1"
     inkscape:current-layer="text1059" /><defs
     id="defs2"><rect
       x="0.4424021"
       y="20.207431"
       width="30.83244"
       height="11.325611"
       id="rect1061" /><rect
       x="0.23224499"
       y="1.225248"
       width="31.907677"
       height="30.638886"
       id="rect186" /></defs><g
     inkscape:label="Layer 1"
     inkscape:groupmode="layer"
     id="layer1"><g
       aria-label="巛"
       transform="matrix(1.7365754,0,0,1.7365754,-0.82233057,1.8735894)"
       id="text184"
       style="font-size:5.33333px;font-family:FreeSerif;-inkscape-font-specification:FreeSerif;letter-spacing:0px;word-spacing:0px;white-space:pre"><g
         aria-label="NADI"
         transform="matrix(0.31524435,0,0,0.34140988,0.66457346,-4.4583885)"
         id="text1059"
         style="stroke-width:0.960918"><path
           d="M 4.2300238,18.377699 V 18.276366 H 2.9766912 v 0.101333 c 0.4106664,0.032 0.5119997,0.128 0.5119997,0.682666 v 1.797333 L 1.4353588,18.276366 H 0.52335933 v 0.101333 c 0.22933319,0 0.30399982,0.04267 0.51733307,0.293333 v 2.351999 c 0,0.549333 -0.0746667,0.650666 -0.51733307,0.682666 V 21.80703 H 1.7766919 v -0.101333 c -0.4106664,-0.02133 -0.501333,-0.144 -0.501333,-0.682666 v -2.090666 l 2.3573319,2.933332 h 0.090667 v -2.805332 c 0,-0.623999 0.1813332,-0.650666 0.506666,-0.682666 z"
           id="path4071"
           style="fill:#000080;fill-opacity:1;stroke-width:0.960918" /><path
           d="m 8.0753568,21.705697 c -0.2399999,-0.016 -0.3039998,-0.064 -0.4799997,-0.464 L 6.2673579,18.212366 H 6.1606913 L 5.0513586,20.831031 C 4.7206921,21.61503 4.6460255,21.69503 4.3900256,21.705697 V 21.80703 H 5.446025 v -0.101333 c -0.2559998,0 -0.3626664,-0.06933 -0.3626664,-0.218667 0,-0.064 0.016,-0.138666 0.042667,-0.207999 l 0.2453332,-0.624 h 1.3973325 l 0.2186665,0.512 c 0.064,0.144 0.1013333,0.282666 0.1013333,0.357333 0,0.133333 -0.090667,0.176 -0.3733331,0.181333 V 21.80703 H 8.0753568 Z M 5.462025,20.436364 6.075358,18.969699 6.6940243,20.436364 Z"
           id="path4073"
           style="fill:#000080;fill-opacity:1;stroke-width:0.960918" /><path
           d="m 11.803358,20.025698 c 0,-0.773333 -0.437333,-1.749332 -2.1279987,-1.749332 H 8.2353602 v 0.101333 c 0.4213331,0.03733 0.469333,0.08533 0.469333,0.48 v 2.367998 c 0,0.384 -0.064,0.453333 -0.469333,0.48 v 0.101333 h 1.5146657 c 1.6426661,0 2.0533321,-1.045332 2.0533321,-1.781332 z m -0.581333,0.03733 c 0,1.157333 -0.693333,1.546666 -1.6959989,1.546666 -0.2133332,0 -0.2773332,-0.048 -0.2773332,-0.218666 v -2.709332 c 0,-0.165333 0.058667,-0.208 0.2773332,-0.208 1.3546659,0 1.6959989,0.874666 1.6959989,1.589332 z"
           id="path4075"
           style="stroke-width:0.960918" /><path
           d="m 12.587357,21.225697 c 0,0.4 -0.06933,0.464 -0.517333,0.48 v 0.101333 h 1.583999 v -0.101333 c -0.437333,-0.016 -0.522667,-0.09067 -0.522667,-0.48 v -2.367998 c 0,-0.389333 0.07467,-0.458667 0.522667,-0.48 v -0.101333 h -1.583999 v 0.101333 c 0.453333,0.02667 0.517333,0.08533 0.517333,0.48 z"
           id="path4077"
           style="stroke-width:0.960918" /></g><g
         id="g6157"
         transform="matrix(0,-1.0562531,0.93428026,0,2.5571161,7.5985352)"
         style="stroke-width:1.00664"><path
           fill="none"
           stroke-width="0.153371"
           stroke-linecap="butt"
           stroke-linejoin="miter"
           stroke="#000000"
           stroke-opacity="1"
           stroke-miterlimit="10"
           d="m 6.2413984,-1.3375819 v 3.360319"
           id="path255" /><path
           fill-rule="nonzero"
           fill="#006400"
           fill-opacity="1"
           d="m 6.2350256,-1.6959887 h 0.2713709 c 0,0.1498104 -0.1215605,0.2713706 -0.2713709,0.2713706 -0.1498104,0 -0.2713709,-0.1215602 -0.2713709,-0.2713706 0,-0.1498103 0.1215605,-0.2713706 0.2713709,-0.2713706 0.1498104,0 0.2713709,0.1215603 0.2713709,0.2713706"
           id="path257"
           style="stroke-width:0.153371" /><path
           fill="none"
           stroke-width="0.153371"
           stroke-linecap="butt"
           stroke-linejoin="miter"
           stroke="#000000"
           stroke-opacity="1"
           stroke-miterlimit="10"
           d="M 7.418293,-0.12834805 6.4385208,2.0705833"
           id="path333"
           sodipodi:nodetypes="cc" /><path
           fill-rule="nonzero"
           fill="#6666ff"
           fill-opacity="1"
           d="m 7.544735,-0.33694451 h 0.1543761 c 0,0.0853207 -0.069055,0.154376 -0.1543761,0.154376 -0.085321,0 -0.1543761,-0.0690553 -0.1543761,-0.154376 0,-0.0853207 0.069055,-0.15437595 0.1543761,-0.15437595 0.085321,0 0.1543761,0.0690553 0.1543761,0.15437595"
           id="path335"
           style="stroke-width:0.153371" /><path
           fill="none"
           stroke-width="0.153371"
           stroke-linecap="butt"
           stroke-linejoin="miter"
           stroke="#000000"
           stroke-opacity="1"
           stroke-miterlimit="10"
           d="M 7.4119182,1.2188041 6.6233326,2.222676"
           id="path391"
           sodipodi:nodetypes="cc" /><path
           fill-rule="nonzero"
           fill="#6666ff"
           fill-opacity="1"
           d="m 7.6084625,1.0348452 h 0.1677877 c 0,0.09274 -0.075048,0.1677873 -0.1677877,0.1677873 -0.09274,0 -0.1677876,-0.075048 -0.1677876,-0.1677873 0,-0.0927397 0.075048,-0.16778804 0.1677876,-0.16778804 0.09274,0 0.1677877,0.0750483 0.1677877,0.16778804"
           id="path393"
           style="stroke-width:0.153371" /><path
           fill-rule="nonzero"
           fill="#ffa500"
           fill-opacity="1"
           d="m 6.2923804,2.4066349 h 0.2805022 c 0,0.1549465 -0.1255554,0.2805019 -0.2805022,0.2805019 -0.1549467,0 -0.2805022,-0.1255554 -0.2805022,-0.2805019 0,-0.1549465 0.1255555,-0.2805019 0.2805022,-0.2805019 0.1549468,0 0.2805022,0.1255554 0.2805022,0.2805019"
           id="path451"
           style="stroke-width:0.153371" /></g></g></g></svg>
